<svg width="16" height="13" viewBox="0 0 16 13" fill="none" xmlns="http://www.w3.org/2000/svg">
<path d="M8.36553 12.5093C14.246 9.00928 17.3113 3.71849 13.9567 1.27662C11.7565 -0.324958 9.29742 0.951031 8.36553 1.76499H8.34402H8.34397H8.32246C7.39056 0.951031 4.93145 -0.324958 2.73126 1.27662C-0.623308 3.71849 2.44196 9.00928 8.32246 12.5093H8.34397H8.34402H8.36553Z" fill="#B672FF"/>
<path d="M8.34396 1.76499H8.36553C9.29742 0.951031 11.7565 -0.324958 13.9567 1.27662C17.3113 3.71849 14.246 9.00928 8.36553 12.5093H8.34396M8.34402 1.76499H8.32246C7.39056 0.951031 4.93145 -0.324958 2.73126 1.27662C-0.623308 3.71849 2.44196 9.00928 8.32246 12.5093H8.34402" stroke="#B672FF"/>
</svg>
